HIERARCHY
ROOT hip
{
	OFFSET 0.000000 0.000000 0.000000 
	CHANNELS 6 Xposition Yposition Zposition Xrotation Zrotation Yrotation
	JOINT abdomen
	{
		OFFSET 0.000000 3.402643 0.000000 
		CHANNELS 3 Xrotation Zrotation Yrotation
		JOINT chest
		{
			OFFSET 0.000000 8.438565 -0.680529 
			CHANNELS 3 Xrotation Zrotation Yrotation
			JOINT neck
			{
				OFFSET 0.000000 10.207942 -0.272212 
				CHANNELS 3 Xrotation Zrotation Yrotation
				JOINT head
				{
					OFFSET 0.000000 3.130431 0.000000 
					CHANNELS 3 Xrotation Zrotation Yrotation
					End Site
					{
						OFFSET 0.000000 3.130435 0.000000 
					}
				}
			}
			JOINT lCollar
			{
				OFFSET 3.470700 6.669187 -0.816635 
				CHANNELS 3 Yrotation Zrotation Xrotation
				JOINT lShldr
				{
					OFFSET 3.198488 0.000000 0.000000 
					CHANNELS 3 Zrotation Yrotation Xrotation
					JOINT lForeArm
					{
						OFFSET 10.139888 0.000000 0.000000 
						CHANNELS 3 Yrotation Zrotation Xrotation
						JOINT lHand
						{
							OFFSET 8.370511 0.000000 0.000000 
							CHANNELS 3 Zrotation Yrotation Xrotation
							End Site
							{
								OFFSET 4.083176 0.000000 0.000000 
							}
						}
					}
				}
			}
			JOINT rCollar
			{
				OFFSET -3.470700 6.669187 -0.816635 
				CHANNELS 3 Yrotation Zrotation Xrotation
				JOINT rShldr
				{
					OFFSET -3.198488 0.000000 0.000000 
					CHANNELS 3 Zrotation Yrotation Xrotation
					JOINT rForeArm
					{
						OFFSET -10.139888 0.000000 0.000000 
						CHANNELS 3 Yrotation Zrotation Xrotation
						JOINT rHand
						{
							OFFSET -8.370511 0.000000 0.000000 
							CHANNELS 3 Zrotation Yrotation Xrotation
							End Site
							{
								OFFSET -4.083176 0.000000 0.000000 
							}
						}
					}
				}
			}
		}
	}
	JOINT lThigh
	{
		OFFSET 5.308129 -1.633274 1.361059 
		CHANNELS 3 Xrotation Zrotation Yrotation
		JOINT lShin
		{
			OFFSET -2.041588 -20.007561 0.000000 
			CHANNELS 3 Xrotation Zrotation Yrotation
			JOINT lFoot
			{
				OFFSET 0.000000 -19.190928 -1.224953 
				CHANNELS 3 Xrotation Yrotation Zrotation
				End Site
				{
					OFFSET 0.000000 -2.449906 4.627600 
				}
			}
		}
	}
	JOINT rThigh
	{
		OFFSET -5.308129 -1.633274 1.361059 
		CHANNELS 3 Xrotation Zrotation Yrotation
		JOINT rShin
		{
			OFFSET 2.041588 -20.007561 0.000000 
			CHANNELS 3 Xrotation Zrotation Yrotation
			JOINT rFoot
			{
				OFFSET 0.000000 -19.190928 -1.224953 
				CHANNELS 3 Xrotation Yrotation Zrotation
				End Site
				{
					OFFSET 0.000000 -2.449906 4.627600 
				}
			}
		}
	}
}
MOTION
Frames: 11
Frame Time: 0.033333
0.990041 49.592945 -0.351061 0.755985 -0.396656 7.832181 0.000000 0.000000 0.000000 2.254531 -0.068346 1.113281 6.056458 -4.236435 1.693493 12.822579 -4.638010 -0.970738 -0.354116 -1.883294 2.608840 -71.600639 -14.899550 31.816231 -81.059921 6.462076 29.641682 -23.822868 16.837322 -6.571858 -1.175024 10.550571 2.889949 61.530640 32.196461 29.363636 69.100784 -5.214238 5.200072 13.230804 -26.322342 -6.991362 2.613846 8.878330 5.483398 -1.551162 -2.769490 13.536183 0.373998 -0.016521 -3.114730 0.683083 -7.646612 -6.135532 0.664927 2.850393 -23.344334 0.824619 0.015065 4.390504 
0.960522 49.588863 -0.319107 0.745973 -0.541799 7.812795 0.000000 0.000000 0.000000 2.016159 -0.244083 1.249989 5.430124 -4.070303 1.781178 14.238074 -4.345005 -1.028362 -0.015748 -1.720923 2.403605 -72.474686 -13.847094 31.518284 -81.615982 6.662574 29.482603 -23.716318 15.265768 -6.200255 0.053420 8.966089 2.539948 61.557236 29.545906 32.469318 57.714729 3.220139 -1.714199 26.178822 -28.191427 -9.549493 2.449506 9.116781 5.680495 -1.212086 -2.840070 13.399426 0.195433 -0.017661 -3.085712 0.731230 -7.453815 -6.062274 0.607584 2.845959 -23.191832 0.760478 -0.031179 4.290938 
0.970962 49.575695 -0.289463 0.629901 -0.386917 7.900539 0.000000 0.000000 0.000000 2.163351 -0.419675 1.962909 4.709770 -4.382413 1.879963 15.251950 -3.074365 -1.965826 0.589742 -2.055972 2.540817 -72.226303 -14.523679 32.707756 -82.019836 6.738461 28.522137 -22.565983 13.873104 -5.759585 1.536568 8.975076 2.617484 58.202629 26.089365 36.248219 55.910843 2.447538 7.023339 13.099383 -23.638596 -6.196746 2.410095 8.960919 5.567648 -0.848832 -2.818272 13.414230 0.015030 -0.010533 -3.084881 0.888468 -7.596953 -6.151196 0.715271 2.796470 -23.311604 0.684581 0.005582 4.472370 
0.936515 49.571472 -0.219259 0.671747 -0.463427 8.642846 0.000000 0.000000 0.000000 2.113397 -0.390317 2.275404 4.432312 -4.548978 1.616320 14.588770 -2.282682 -2.668177 0.510923 -2.099068 2.472540 -71.885643 -15.307137 33.778683 -82.608383 6.794763 28.825352 -20.279190 12.323695 -5.245142 0.946024 9.828698 2.645291 55.452656 23.314104 38.774464 60.460678 1.502155 3.970634 3.835608 -24.993320 -4.562644 2.535906 9.083958 5.560233 -1.328944 -2.761857 12.633545 0.250475 -0.021585 -3.274450 1.092619 -7.408856 -6.097122 0.606212 2.712415 -24.030985 0.597252 -0.042898 4.486869 
0.979307 49.578030 -0.152338 0.688065 -0.702291 9.893265 0.000000 0.000000 0.000000 1.867078 -0.341705 1.328101 4.624588 -4.150051 0.734035 13.880008 -2.351361 -2.453514 -0.224052 -2.002559 2.257529 -70.894547 -14.854990 34.439598 -83.866974 7.079657 28.372843 -17.272966 10.841220 -4.755157 -1.100735 9.306864 2.512264 55.229248 22.387135 40.095451 64.697311 -0.059783 0.701390 9.693703 -25.515450 -5.771913 2.321435 9.161968 5.347388 -1.444565 -2.545728 11.658203 0.369348 -0.010855 -3.425575 1.453165 -7.251012 -6.250962 0.354033 2.827503 -25.297541 0.573427 0.008846 4.339743 
0.960418 49.586418 -0.091075 0.798570 -0.673086 10.059270 0.000000 0.000000 0.000000 1.527843 -0.683573 0.449187 4.892090 -4.003893 0.146809 13.764666 -2.508393 -1.896562 -0.462503 -2.185093 1.964368 -69.737755 -13.793134 34.337265 -85.571884 7.339540 26.378807 -16.412737 11.240842 -4.755768 -1.757818 8.211158 2.179873 54.085094 22.095758 41.231400 69.078461 -2.286638 1.860512 16.333141 -25.053566 -7.021536 2.128144 9.225976 5.409611 -1.137916 -2.667423 11.388417 0.142987 0.007216 -3.254321 1.424872 -7.245485 -6.240707 0.420993 2.780167 -25.458889 0.444742 0.007003 4.539027 
0.923532 49.589283 -0.034572 0.809560 -0.587479 9.531745 0.000000 0.000000 0.000000 1.313629 -0.957020 0.283164 5.071744 -3.964842 -0.049386 13.809316 -2.625771 -1.720971 -0.622812 -2.295694 1.769172 -69.818893 -12.199823 32.643757 -85.003975 7.341455 27.576277 -15.996155 9.380365 -4.432824 -1.974084 7.173540 1.957627 50.992012 23.153584 42.812611 73.893272 -4.563747 1.476670 18.081448 -26.087019 -7.565502 2.692647 9.299659 5.739431 -1.796092 -2.926228 11.495841 0.278582 -0.019211 -3.179339 1.365686 -7.220898 -6.120811 0.501318 2.650244 -25.033350 0.398807 -0.001426 4.505267 
0.961957 49.583893 -0.004778 0.675485 -0.540034 9.072594 0.000000 0.000000 0.000000 1.312713 -1.035141 0.312449 5.102762 -3.701090 -0.381956 14.125072 -3.201514 -1.819570 -0.879094 -2.235048 1.758918 -70.295006 -11.115251 31.329422 -84.476112 7.423891 29.153477 -15.296412 8.001219 -4.179255 -2.457735 6.180008 1.952514 46.700565 25.366158 43.857979 78.097008 -6.504441 -1.219672 17.413382 -27.062901 -7.606132 3.169770 9.259497 5.860544 -2.162702 -2.962132 11.804252 0.347877 0.025487 -3.307858 1.433667 -7.298881 -6.156260 0.490189 2.681427 -24.575266 0.461295 0.015694 4.416903 
0.980244 49.583462 -0.033323 0.708049 -0.675866 8.623593 0.000000 0.000000 0.000000 1.265649 -1.035149 0.214809 5.082353 -3.329910 -0.577468 14.353271 -3.562901 -1.692863 -1.124549 -2.270670 1.700246 -69.422913 -11.637610 31.540331 -85.071884 7.239699 27.415834 -15.444510 10.262521 -4.535017 -2.885695 5.405643 1.900421 42.195385 27.759884 42.848087 82.003052 -8.377747 -2.416325 18.228298 -27.091560 -7.787139 3.113045 9.352168 5.957247 -2.000382 -2.925837 12.202499 0.285194 -0.009024 -3.373678 1.267600 -7.180849 -5.999968 0.439371 2.654658 -24.266294 0.566197 -0.040119 4.300728 
1.014669 49.572430 -0.031365 0.785649 -0.860457 8.106309 0.000000 0.000000 0.000000 1.055192 -0.986328 -0.029461 5.337513 -2.997846 -0.665197 14.209887 -3.612192 -1.409608 -1.366455 -2.263445 1.514742 -68.618286 -11.568973 31.489286 -85.173538 7.062948 26.178324 -16.120308 11.898088 -4.833797 -3.245661 5.003664 1.702928 37.500591 30.006306 40.328846 86.305496 -10.204815 -2.776492 18.010807 -26.741045 -7.678535 3.104861 9.472898 6.027597 -1.947811 -2.865134 12.558707 0.188433 -0.032301 -3.581836 1.102999 -7.050846 -5.833165 0.404276 2.650595 -24.014305 0.646094 0.021216 4.259938 
1.063222 49.569328 -0.015056 0.852764 -0.706600 7.617688 0.000000 0.000000 0.000000 0.914825 -1.142559 -0.332160 5.517717 -2.802461 -0.802211 14.310575 -4.032556 -1.028346 -1.634281 -2.315325 1.377617 -68.034874 -10.912595 31.006157 -85.286942 7.069054 26.250500 -16.236252 11.540915 -4.791078 -3.674889 4.414432 1.544351 32.830025 32.837017 36.345509 90.308853 -11.734199 -2.152244 18.342964 -26.969231 -7.790355 3.220271 9.223046 5.887105 -2.051364 -2.820287 13.365007 0.196328 -0.016770 -3.732433 1.004974 -7.264787 -5.849995 0.374485 2.630435 -23.430187 0.680055 0.018348 4.289640 
